<?xml version="1.0" encoding="utf-8"?>
<!-- Generator: Adobe Illustrator 16.0.0, SVG Export Plug-In . SVG Version: 6.00 Build 0)  -->
<!DOCTYPE svg PUBLIC "-//W3C//DTD SVG 1.1//EN" "http://www.w3.org/Graphics/SVG/1.1/DTD/svg11.dtd">
<svg version="1.1" id="Layer_1" xmlns="http://www.w3.org/2000/svg" xmlns:xlink="http://www.w3.org/1999/xlink" x="0px" y="0px"
	 width="90.347px" height="111.438px" viewBox="0 0 90.347 111.438" enable-background="new 0 0 90.347 111.438"
	 xml:space="preserve">
<g>
	<path fill="#263976" d="M30.858,15.421C30.858,6.918,23.94,0,15.437,0S0.016,6.918,0.016,15.421h6C6.016,10.226,10.242,6,15.437,6
		c5.195,0,9.421,4.226,9.421,9.421s-4.226,9.421-9.421,9.421C6.934,24.843,0.018,31.76,0.018,40.263h6
		c0-5.195,4.226-9.421,9.421-9.421C23.941,30.841,30.858,23.923,30.858,15.421"/>
	<path fill="#4689C8" d="M24.397,52.5c3.793-2.795,6.27-7.278,6.27-12.339h-6c0,5.146-4.187,9.333-9.333,9.333v0.012v5.988v0.012
		c5.146,0,9.333,4.188,9.333,9.334s-4.187,9.332-9.333,9.332C10.187,74.171,6,69.986,6,64.839H0c0,8.455,6.878,15.332,15.334,15.332
		c8.455,0,15.333-6.877,15.333-15.332C30.667,59.777,28.19,55.292,24.397,52.5"/>
	<path fill="#263976" d="M73.234,47.859c-0.111,0.066-0.224,0.131-0.336,0.193C73.01,47.99,73.122,47.925,73.234,47.859"/>
	<path fill="#263976" d="M72.019,48.523c-0.093,0.047-0.184,0.096-0.277,0.143C71.835,48.619,71.926,48.57,72.019,48.523"/>
	<path fill="#263976" d="M79.571,42.295c-0.071,0.091-0.142,0.183-0.214,0.273C79.429,42.478,79.5,42.386,79.571,42.295"/>
	<path fill="#263976" d="M74.332,47.173c-0.074,0.049-0.15,0.096-0.225,0.145C74.182,47.269,74.257,47.222,74.332,47.173"/>
	<path fill="#263976" d="M77.624,44.488c-0.069,0.068-0.14,0.133-0.21,0.2C77.483,44.621,77.555,44.556,77.624,44.488"/>
	<path fill="#263976" d="M76.669,45.373c-0.091,0.08-0.184,0.16-0.276,0.239C76.485,45.533,76.579,45.453,76.669,45.373"/>
	<path fill="#263976" d="M80.353,41.233c-0.059,0.085-0.12,0.169-0.18,0.253C80.232,41.401,80.293,41.318,80.353,41.233"/>
	<path fill="#263976" d="M75.571,46.279c-0.062,0.047-0.123,0.098-0.186,0.145C75.448,46.376,75.509,46.326,75.571,46.279"/>
	<path fill="#263976" d="M78.616,43.444c-0.031,0.035-0.061,0.071-0.092,0.106C78.555,43.516,78.584,43.479,78.616,43.444"/>
	<line fill="#263976" x1="81.068" y1="40.133" x2="81.068" y2="40.133"/>
	<path fill="#263976" d="M83.724,33.561L83.724,33.561z"/>
	<path fill="#263976" d="M84.129,31.215c0.006-0.047,0.013-0.093,0.018-0.139C84.143,31.122,84.135,31.168,84.129,31.215"/>
	<path fill="#263976" d="M84.237,30.039c0.005-0.073,0.013-0.144,0.017-0.217C84.25,29.895,84.242,29.966,84.237,30.039"/>
	<path fill="#263976" d="M83.961,32.375c0.002-0.014,0.005-0.027,0.007-0.042C83.966,32.348,83.963,32.361,83.961,32.375"/>
	<polyline fill="#4689C8" points="81.068,40.133 81.068,40.133 81.068,40.132 81.068,40.133 	"/>
	<path fill="#4689C8" d="M83.724,33.562"/>
	<path fill="#263976" d="M61.943,0.24c-15.63,0-28.347,12.716-28.347,28.347c0,4.111,0.887,8.016,2.468,11.546
		c1.067,2.381,2.447,4.591,4.097,6.572c5.204,6.244,13.036,10.229,21.782,10.229c8.745,0,16.575-3.982,21.779-10.227
		c-0.537-2.352-1.438-4.567-2.654-6.574c0,0,0,0,0,0.001c-0.227,0.374-0.467,0.74-0.715,1.1c-0.059,0.085-0.12,0.168-0.18,0.253
		c-0.195,0.274-0.395,0.544-0.602,0.808c-0.07,0.091-0.141,0.183-0.214,0.273c-0.24,0.298-0.486,0.591-0.741,0.877
		c-0.031,0.035-0.061,0.071-0.092,0.106c-0.291,0.322-0.592,0.633-0.9,0.938c-0.069,0.068-0.14,0.133-0.21,0.2
		c-0.243,0.234-0.491,0.462-0.744,0.685c-0.092,0.08-0.184,0.159-0.277,0.239c-0.268,0.229-0.542,0.45-0.822,0.667
		c-0.062,0.047-0.123,0.098-0.186,0.146c-0.343,0.258-0.695,0.508-1.053,0.748c-0.075,0.049-0.151,0.096-0.225,0.145
		c-0.287,0.188-0.578,0.367-0.873,0.541c-0.112,0.066-0.224,0.131-0.336,0.193c-0.289,0.164-0.582,0.32-0.879,0.471
		c-0.093,0.047-0.183,0.096-0.277,0.143c-0.387,0.189-0.779,0.367-1.178,0.535c-0.072,0.031-0.144,0.057-0.216,0.086
		c-0.33,0.135-0.664,0.262-1.002,0.381c-0.127,0.045-0.254,0.086-0.381,0.129c-0.307,0.102-0.617,0.197-0.93,0.285
		c-0.116,0.033-0.233,0.068-0.35,0.1c-0.422,0.113-0.848,0.215-1.281,0.303c-0.05,0.012-0.103,0.018-0.154,0.029
		c-0.382,0.074-0.768,0.139-1.157,0.193c-0.136,0.02-0.273,0.035-0.409,0.053c-0.324,0.039-0.649,0.072-0.976,0.098
		c-0.135,0.01-0.268,0.023-0.404,0.031c-0.45,0.027-0.903,0.045-1.361,0.045c-8.1,0-15.206-4.332-19.125-10.8
		c-1.216-2.006-2.12-4.22-2.657-6.571c-0.365-1.601-0.565-3.265-0.565-4.975c0-12.322,10.025-22.347,22.347-22.347
		c12.322,0,22.347,10.025,22.347,22.347c0,0.414-0.014,0.826-0.036,1.235c-0.004,0.073-0.012,0.144-0.017,0.217
		c-0.023,0.347-0.051,0.694-0.089,1.037c-0.006,0.046-0.013,0.092-0.018,0.139c-0.044,0.376-0.098,0.749-0.161,1.119
		c-0.002,0.014-0.005,0.028-0.007,0.041c-0.069,0.4-0.148,0.795-0.238,1.186v0.001c1.65,1.98,3.031,4.191,4.097,6.571
		c1.581-3.53,2.469-7.435,2.469-11.546C90.29,12.956,77.574,0.24,61.943,0.24"/>
	<path fill="#4689C8" d="M87.821,40.133c-1.067-2.38-2.447-4.591-4.097-6.571c-5.204-6.246-13.035-10.229-21.781-10.229
		c-8.747,0-16.578,3.983-21.782,10.229c0.537,2.351,1.44,4.565,2.656,6.571c3.92-6.468,11.026-10.8,19.126-10.8
		c8.099,0,15.205,4.332,19.125,10.8c1.216,2.007,2.116,4.222,2.653,6.574c0.366,1.602,0.568,3.264,0.568,4.973
		c0,12.322-10.024,22.348-22.346,22.348c-12.322,0-22.347-10.025-22.347-22.348c0-1.711,0.199-3.373,0.565-4.975
		c-1.65-1.981-3.031-4.191-4.097-6.572c-1.581,3.53-2.468,7.435-2.468,11.546c0,15.631,12.716,28.348,28.347,28.348
		c15.63,0,28.346-12.717,28.346-28.348C90.29,47.568,89.403,43.662,87.821,40.133"/>
	<polygon fill="#253976" points="5.999,93.201 4.059,93.201 4.059,99.111 2.051,99.111 2.051,93.201 0.111,93.201 0.112,91.259 
		5.999,91.259 	"/>
	<polygon fill="#253976" points="12.895,97.226 12.895,99.111 7.848,99.111 7.849,91.259 12.839,91.259 12.839,93.132 9.856,93.132 
		9.856,94.22 12.559,94.22 12.559,96.072 9.856,96.072 9.856,97.226 	"/>
	<path fill="#253976" d="M14.61,95.185c0-2.311,1.716-4.094,4.095-4.094c1.435,0,2.714,0.729,3.397,1.861l-1.738,0.998
		c-0.303-0.561-0.931-0.896-1.66-0.896c-1.268,0-2.097,0.875-2.097,2.131s0.829,2.131,2.097,2.131c0.729,0,1.357-0.336,1.66-0.908
		l1.738,1.01c-0.684,1.133-1.951,1.861-3.398,1.861C16.326,99.279,14.61,97.496,14.61,95.185"/>
	<polygon fill="#253976" points="30.266,91.259 30.266,99.111 28.718,99.111 25.948,95.164 25.948,99.111 23.939,99.111 
		23.939,91.259 25.499,91.259 28.269,95.207 28.269,91.259 	"/>
	<path fill="#253976" d="M32.327,95.185c0-2.311,1.829-4.094,4.117-4.094c2.287,0,4.115,1.783,4.115,4.094s-1.828,4.094-4.116,4.094
		S32.327,97.496,32.327,95.185 M38.563,95.185c0-1.256-0.92-2.131-2.12-2.131c-1.2,0-2.119,0.875-2.119,2.131
		s0.919,2.131,2.119,2.131C37.643,97.316,38.563,96.441,38.563,95.185"/>
	<polygon fill="#253976" points="47.32,97.169 47.32,99.111 42.61,99.111 42.61,91.259 44.618,91.259 44.617,97.169 	"/>
	<path fill="#253976" d="M48.474,95.185c0-2.311,1.829-4.092,4.117-4.092s4.116,1.781,4.116,4.092
		c-0.001,2.311-1.829,4.094-4.117,4.094S48.474,97.496,48.474,95.185 M54.71,95.185c0-1.256-0.919-2.131-2.119-2.131
		c-1.201,0-2.12,0.875-2.12,2.131s0.919,2.131,2.119,2.131C53.79,97.316,54.71,96.441,54.71,95.185 M53.252,90.531l1.302-1.627
		h-2.176l-0.897,1.627H53.252z"/>
	<path fill="#253976" d="M66.552,95.41c-0.001,2.311-1.604,3.869-3.893,3.869c-2.478,0-4.205-1.807-4.204-4.082
		c0-2.299,1.772-4.105,4.093-4.105c1.503,0,2.771,0.74,3.443,1.807l-1.705,0.975c-0.302-0.471-0.919-0.818-1.715-0.818
		c-1.234,0-2.12,0.896-2.12,2.152c0,1.145,0.75,2.166,2.243,2.166c0.963,0,1.536-0.404,1.806-1.033h-1.907v-1.727h3.959V95.41z"/>
	<rect x="68.602" y="91.259" fill="#253976" width="2.007" height="7.852"/>
	<path fill="#253976" d="M72.661,95.185c0-2.311,1.716-4.094,4.093-4.094c1.435,0,2.715,0.729,3.398,1.861l-1.738,0.998
		c-0.303-0.561-0.931-0.896-1.66-0.896c-1.267,0-2.097,0.875-2.097,2.131s0.829,2.131,2.096,2.131c0.729,0,1.357-0.336,1.661-0.908
		l1.737,1.01c-0.683,1.133-1.951,1.861-3.398,1.861C74.376,99.279,72.66,97.496,72.661,95.185"/>
	<path fill="#253976" d="M81.509,95.185c0-2.311,1.828-4.094,4.115-4.094c2.288,0,4.116,1.783,4.116,4.094
		c-0.001,2.311-1.829,4.094-4.117,4.094C83.336,99.279,81.508,97.496,81.509,95.185 M87.744,95.185c0-1.256-0.92-2.131-2.12-2.131
		c-1.2,0-2.119,0.875-2.119,2.131s0.918,2.131,2.118,2.131C86.823,97.316,87.744,96.441,87.744,95.185"/>
	<path fill="#253976" d="M7.625,107.417c0,2.221-1.65,3.926-3.814,3.926H0.615v-7.852h3.196
		C5.976,103.492,7.625,105.197,7.625,107.417 M5.662,107.417c0-1.199-0.774-1.984-1.851-1.984H2.679v3.969h1.132
		C4.888,109.402,5.662,108.617,5.662,107.417"/>
	<polygon fill="#253976" points="14.274,109.458 14.274,111.343 9.227,111.343 9.227,103.492 14.218,103.492 14.218,105.365 
		11.235,105.365 11.235,106.453 13.938,106.453 13.938,108.304 11.235,108.304 11.235,109.458 	"/>
	<polygon fill="#253976" points="27.125,111.343 25.129,111.343 25.129,107.115 23.222,110.267 23.02,110.267 21.125,107.126 
		21.125,111.343 19.117,111.343 19.118,103.492 21.125,103.492 23.122,106.845 25.129,103.492 27.125,103.492 	"/>
	<path fill="#253976" d="M28.738,107.417c0-2.311,1.828-4.094,4.116-4.094s4.116,1.783,4.116,4.094s-1.829,4.094-4.116,4.094
		C30.566,111.511,28.738,109.728,28.738,107.417 M34.974,107.417c0-1.256-0.92-2.131-2.12-2.131c-1.2,0-2.119,0.875-2.119,2.131
		s0.919,2.131,2.119,2.131C34.054,109.548,34.974,108.673,34.974,107.417"/>
	<polygon fill="#253976" points="44.898,103.492 44.898,111.343 43.35,111.343 40.58,107.396 40.58,111.343 38.572,111.343 
		38.572,103.492 40.131,103.492 42.901,107.439 42.901,103.492 	"/>
	<polygon fill="#253976" points="52.197,105.433 50.257,105.433 50.257,111.343 48.249,111.343 48.249,105.433 46.309,105.433 
		46.309,103.492 52.197,103.492 	"/>
	<polygon fill="#253976" points="58.646,109.458 58.646,111.343 53.599,111.343 53.599,103.492 58.588,103.492 58.588,105.365 
		55.605,105.365 55.605,106.453 58.309,106.453 58.309,108.304 55.605,108.304 55.605,109.458 	"/>
	<path fill="#253976" d="M62.994,108.808h-0.718v2.535H60.27v-7.852h3.14c1.593,0,2.826,1.133,2.826,2.715
		c0,0.965-0.526,1.783-1.334,2.232l1.614,2.904h-2.153L62.994,108.808z M62.276,107.103h1.11c0.494,0.012,0.842-0.348,0.842-0.875
		c0-0.516-0.348-0.885-0.842-0.885h-1.11V107.103z"/>
	<path fill="#253976" d="M70.619,108.808h-0.718v2.535h-2.007v-7.852h3.14c1.593,0,2.826,1.133,2.826,2.715
		c0,0.965-0.526,1.783-1.334,2.232l1.614,2.904h-2.153L70.619,108.808z M69.901,107.103h1.11c0.494,0.012,0.842-0.348,0.842-0.875
		c0-0.516-0.348-0.885-0.842-0.885h-1.11V107.103z"/>
	<polygon fill="#253976" points="80.566,109.458 80.566,111.343 75.52,111.343 75.52,103.492 80.509,103.492 80.509,105.365 
		77.526,105.365 77.526,106.453 80.229,106.453 80.229,108.304 77.526,108.304 77.526,109.458 	"/>
	<polygon fill="#253976" points="86.229,108.326 86.229,111.343 84.221,111.343 84.221,108.349 81.575,103.492 83.829,103.492 
		85.218,106.396 86.622,103.492 88.875,103.492 	"/>
</g>
</svg>
